# xmcd CD database file
#
# Track frame offsets:
#	187
#	18445
#	32355
#	47007
#	64797
#	83657
#	103875
#	120912
#	144817
#
# Disc length: 2177 seconds
#
# Revision: 5
# Processed by: cddbd v1.5.2PL0 Copyright (c) Steve Scherf et al.
# Submitted via: CDex 1.94
#
DISCID=64087f09
DTITLE=Thin Lizzy - Jailbreak (1989, Vertigo, 28PD-546, Japan)
DYEAR=1976
DGENRE=Heavy Metal
TTITLE0=Jailbreak
TTITLE1=Angel From The Coast
TTITLE2=Running Back
TTITLE3=Romeo And The Lonely Girl
TTITLE4=Warriors
TTITLE5=The Boys Are Back In Town
TTITLE6=Fight Or Fall
TTITLE7=Cowboy Song
TTITLE8=Emerald
EXTD=YEAR: 1976
EXTT0=
EXTT1=
EXTT2=
EXTT3=
EXTT4=
EXTT5=
EXTT6=
EXTT7=
EXTT8=
PLAYORDER=
